<mxfile host="app.diagrams.net" modified="2024-05-11T13:43:05.958Z" agent="Mozilla/5.0 (Macintosh; Intel Mac OS X 10.15; rv:127.0) Gecko/20100101 Firefox/127.0" etag="L6tp-tvD06_g2Gk0fwGm" version="24.3.1" type="device">
  <diagram name="Page-1" id="UW3OLV6GaEz2t2Hav6oM">
    <mxGraphModel dx="1809" dy="871" grid="1" gridSize="10" guides="1" tooltips="1" connect="1" arrows="1" fold="1" page="1" pageScale="1" pageWidth="3300" pageHeight="4681" math="0" shadow="0">
      <root>
        <mxCell id="0" />
        <mxCell id="1" parent="0" />
        <mxCell id="tWXApw5cy0hb7qnAGB8U-29" value="" style="rounded=0;whiteSpace=wrap;html=1;" parent="1" vertex="1">
          <mxGeometry x="200" y="160" width="880" height="800" as="geometry" />
        </mxCell>
        <mxCell id="tWXApw5cy0hb7qnAGB8U-1" value="" style="whiteSpace=wrap;html=1;aspect=fixed;" parent="1" vertex="1">
          <mxGeometry x="400" y="320" width="480" height="480" as="geometry" />
        </mxCell>
        <mxCell id="tWXApw5cy0hb7qnAGB8U-2" value="" style="endArrow=none;html=1;rounded=0;fillColor=#f5f5f5;strokeColor=#666666;" parent="1" edge="1">
          <mxGeometry width="50" height="50" relative="1" as="geometry">
            <mxPoint x="560" y="920" as="sourcePoint" />
            <mxPoint x="560" y="200" as="targetPoint" />
          </mxGeometry>
        </mxCell>
        <mxCell id="tWXApw5cy0hb7qnAGB8U-3" value="" style="endArrow=none;html=1;rounded=0;" parent="1" edge="1">
          <mxGeometry width="50" height="50" relative="1" as="geometry">
            <mxPoint x="720" y="920" as="sourcePoint" />
            <mxPoint x="720" y="200" as="targetPoint" />
          </mxGeometry>
        </mxCell>
        <mxCell id="tWXApw5cy0hb7qnAGB8U-4" value="" style="endArrow=none;html=1;rounded=0;" parent="1" edge="1">
          <mxGeometry width="50" height="50" relative="1" as="geometry">
            <mxPoint x="280" y="480" as="sourcePoint" />
            <mxPoint x="1000" y="480" as="targetPoint" />
          </mxGeometry>
        </mxCell>
        <mxCell id="tWXApw5cy0hb7qnAGB8U-5" value="" style="endArrow=none;html=1;rounded=0;" parent="1" edge="1">
          <mxGeometry width="50" height="50" relative="1" as="geometry">
            <mxPoint x="280" y="640" as="sourcePoint" />
            <mxPoint x="1000" y="640" as="targetPoint" />
          </mxGeometry>
        </mxCell>
        <mxCell id="tWXApw5cy0hb7qnAGB8U-6" value="" style="rounded=1;whiteSpace=wrap;html=1;fillColor=#dae8fc;strokeColor=#6c8ebf;" parent="1" vertex="1">
          <mxGeometry x="560" y="480" width="160" height="160" as="geometry" />
        </mxCell>
        <mxCell id="tWXApw5cy0hb7qnAGB8U-7" value="&lt;font style=&quot;font-size: 18px;&quot;&gt;Anchor&lt;/font&gt;" style="text;html=1;strokeColor=none;fillColor=none;align=center;verticalAlign=middle;whiteSpace=wrap;rounded=0;" parent="1" vertex="1">
          <mxGeometry x="610" y="545" width="60" height="30" as="geometry" />
        </mxCell>
        <mxCell id="tWXApw5cy0hb7qnAGB8U-8" value="&lt;div&gt;&lt;font style=&quot;font-size: 18px;&quot;&gt;Start/&lt;/font&gt;&lt;/div&gt;&lt;div&gt;&lt;font style=&quot;font-size: 18px;&quot;&gt;Block-start&lt;/font&gt;&lt;/div&gt;" style="text;html=1;strokeColor=none;fillColor=none;align=center;verticalAlign=middle;whiteSpace=wrap;rounded=0;" parent="1" vertex="1">
          <mxGeometry x="915" y="385" width="90" height="30" as="geometry" />
        </mxCell>
        <mxCell id="tWXApw5cy0hb7qnAGB8U-9" value="Center" style="text;html=1;strokeColor=none;fillColor=none;align=center;verticalAlign=middle;whiteSpace=wrap;rounded=0;fontSize=18;" parent="1" vertex="1">
          <mxGeometry x="930" y="545" width="60" height="30" as="geometry" />
        </mxCell>
        <mxCell id="tWXApw5cy0hb7qnAGB8U-10" value="&lt;div&gt;End/&lt;/div&gt;&lt;div&gt;Block-end&lt;br&gt;&lt;/div&gt;" style="text;html=1;strokeColor=none;fillColor=none;align=center;verticalAlign=middle;whiteSpace=wrap;rounded=0;fontSize=18;" parent="1" vertex="1">
          <mxGeometry x="915" y="705" width="90" height="30" as="geometry" />
        </mxCell>
        <mxCell id="tWXApw5cy0hb7qnAGB8U-11" value="&lt;div style=&quot;font-size: 18px;&quot;&gt;&lt;font style=&quot;font-size: 18px;&quot;&gt;Start/&lt;/font&gt;&lt;/div&gt;&lt;div style=&quot;font-size: 18px;&quot;&gt;&lt;font style=&quot;font-size: 18px;&quot;&gt;&lt;font style=&quot;font-size: 18px;&quot;&gt;Inline-start&lt;/font&gt;&lt;br&gt;&lt;/font&gt;&lt;/div&gt;" style="text;html=1;strokeColor=none;fillColor=none;align=center;verticalAlign=middle;whiteSpace=wrap;rounded=0;" parent="1" vertex="1">
          <mxGeometry x="435" y="850" width="90" height="20" as="geometry" />
        </mxCell>
        <mxCell id="tWXApw5cy0hb7qnAGB8U-12" value="&lt;font style=&quot;font-size: 18px;&quot;&gt;Center&lt;/font&gt;" style="text;html=1;strokeColor=none;fillColor=none;align=center;verticalAlign=middle;whiteSpace=wrap;rounded=0;" parent="1" vertex="1">
          <mxGeometry x="610" y="850" width="60" height="20" as="geometry" />
        </mxCell>
        <mxCell id="tWXApw5cy0hb7qnAGB8U-13" value="&lt;div&gt;&lt;font style=&quot;font-size: 18px;&quot;&gt;End/&lt;/font&gt;&lt;/div&gt;&lt;div&gt;&lt;font style=&quot;font-size: 18px;&quot;&gt;Inline-end&lt;br&gt;&lt;/font&gt;&lt;/div&gt;" style="text;html=1;strokeColor=none;fillColor=none;align=center;verticalAlign=middle;whiteSpace=wrap;rounded=0;" parent="1" vertex="1">
          <mxGeometry x="755" y="850" width="90" height="20" as="geometry" />
        </mxCell>
        <mxCell id="tWXApw5cy0hb7qnAGB8U-14" value="&lt;font style=&quot;font-size: 18px;&quot;&gt;Top&lt;/font&gt;" style="text;html=1;strokeColor=none;fillColor=none;align=center;verticalAlign=middle;whiteSpace=wrap;rounded=0;" parent="1" vertex="1">
          <mxGeometry x="290" y="385" width="60" height="30" as="geometry" />
        </mxCell>
        <mxCell id="tWXApw5cy0hb7qnAGB8U-15" value="Center" style="text;html=1;strokeColor=none;fillColor=none;align=center;verticalAlign=middle;whiteSpace=wrap;rounded=0;fontSize=18;" parent="1" vertex="1">
          <mxGeometry x="290" y="545" width="60" height="30" as="geometry" />
        </mxCell>
        <mxCell id="tWXApw5cy0hb7qnAGB8U-16" value="Bottom" style="text;html=1;strokeColor=none;fillColor=none;align=center;verticalAlign=middle;whiteSpace=wrap;rounded=0;fontSize=18;" parent="1" vertex="1">
          <mxGeometry x="290" y="705" width="60" height="30" as="geometry" />
        </mxCell>
        <mxCell id="tWXApw5cy0hb7qnAGB8U-17" value="&lt;font style=&quot;font-size: 18px;&quot;&gt;Left&lt;/font&gt;" style="text;html=1;strokeColor=none;fillColor=none;align=center;verticalAlign=middle;whiteSpace=wrap;rounded=0;" parent="1" vertex="1">
          <mxGeometry x="450" y="250" width="60" height="20" as="geometry" />
        </mxCell>
        <mxCell id="tWXApw5cy0hb7qnAGB8U-18" value="&lt;font style=&quot;font-size: 18px;&quot;&gt;Center&lt;/font&gt;" style="text;html=1;strokeColor=none;fillColor=none;align=center;verticalAlign=middle;whiteSpace=wrap;rounded=0;" parent="1" vertex="1">
          <mxGeometry x="610" y="250" width="60" height="20" as="geometry" />
        </mxCell>
        <mxCell id="tWXApw5cy0hb7qnAGB8U-19" value="&lt;font style=&quot;font-size: 18px;&quot;&gt;Right&lt;/font&gt;" style="text;html=1;strokeColor=none;fillColor=none;align=center;verticalAlign=middle;whiteSpace=wrap;rounded=0;" parent="1" vertex="1">
          <mxGeometry x="770" y="250" width="60" height="20" as="geometry" />
        </mxCell>
        <mxCell id="tWXApw5cy0hb7qnAGB8U-20" value="" style="rounded=1;whiteSpace=wrap;html=1;fillColor=#f5f5f5;strokeColor=#666666;fontColor=#333333;" parent="1" vertex="1">
          <mxGeometry x="240" y="200" width="160" height="120" as="geometry" />
        </mxCell>
        <mxCell id="tWXApw5cy0hb7qnAGB8U-21" value="&lt;font style=&quot;font-size: 18px;&quot;&gt;Physical values&lt;br&gt;&lt;/font&gt;" style="text;html=1;strokeColor=none;fillColor=none;align=center;verticalAlign=middle;whiteSpace=wrap;rounded=0;" parent="1" vertex="1">
          <mxGeometry x="290" y="245" width="60" height="30" as="geometry" />
        </mxCell>
        <mxCell id="tWXApw5cy0hb7qnAGB8U-22" value="" style="endArrow=classic;html=1;rounded=0;exitX=0.5;exitY=1;exitDx=0;exitDy=0;strokeWidth=2;" parent="1" source="tWXApw5cy0hb7qnAGB8U-20" edge="1">
          <mxGeometry width="50" height="50" relative="1" as="geometry">
            <mxPoint x="570" y="350" as="sourcePoint" />
            <mxPoint x="320" y="360" as="targetPoint" />
          </mxGeometry>
        </mxCell>
        <mxCell id="tWXApw5cy0hb7qnAGB8U-23" value="" style="endArrow=classic;html=1;rounded=0;exitX=1;exitY=0.5;exitDx=0;exitDy=0;strokeWidth=2;" parent="1" source="tWXApw5cy0hb7qnAGB8U-20" edge="1">
          <mxGeometry width="50" height="50" relative="1" as="geometry">
            <mxPoint x="330" y="330" as="sourcePoint" />
            <mxPoint x="440" y="260" as="targetPoint" />
          </mxGeometry>
        </mxCell>
        <mxCell id="tWXApw5cy0hb7qnAGB8U-24" value="" style="rounded=1;whiteSpace=wrap;html=1;fillColor=#f5f5f5;strokeColor=#666666;fontColor=#333333;" parent="1" vertex="1">
          <mxGeometry x="880" y="800" width="160" height="120" as="geometry" />
        </mxCell>
        <mxCell id="tWXApw5cy0hb7qnAGB8U-25" value="&lt;font style=&quot;font-size: 18px;&quot;&gt;Logical values&lt;br&gt;&lt;/font&gt;" style="text;html=1;strokeColor=none;fillColor=none;align=center;verticalAlign=middle;whiteSpace=wrap;rounded=0;" parent="1" vertex="1">
          <mxGeometry x="930" y="845" width="60" height="30" as="geometry" />
        </mxCell>
        <mxCell id="tWXApw5cy0hb7qnAGB8U-26" value="" style="endArrow=classic;html=1;rounded=0;exitX=0;exitY=0.5;exitDx=0;exitDy=0;strokeWidth=2;" parent="1" source="tWXApw5cy0hb7qnAGB8U-24" edge="1">
          <mxGeometry width="50" height="50" relative="1" as="geometry">
            <mxPoint x="570" y="830" as="sourcePoint" />
            <mxPoint x="840" y="860" as="targetPoint" />
          </mxGeometry>
        </mxCell>
        <mxCell id="tWXApw5cy0hb7qnAGB8U-27" value="" style="endArrow=classic;html=1;rounded=0;exitX=0.5;exitY=0;exitDx=0;exitDy=0;strokeWidth=2;" parent="1" source="tWXApw5cy0hb7qnAGB8U-24" edge="1">
          <mxGeometry width="50" height="50" relative="1" as="geometry">
            <mxPoint x="890" y="870" as="sourcePoint" />
            <mxPoint x="960" y="760" as="targetPoint" />
          </mxGeometry>
        </mxCell>
      </root>
    </mxGraphModel>
  </diagram>
</mxfile>
